<svg xmlns="http://www.w3.org/2000/svg" viewBox="0 0 200 200">
<!-- 흰 백합 (이탈리아어) -->
<path d="M100 100 C80 78 82 34 100 8 C118 34 120 78 100 100Z" fill="#f8f6ec" stroke="#cdd8ba" stroke-width="3" stroke-linejoin="round" transform="rotate(0 100 100)"/>
<path d="M100 100 C80 78 82 34 100 8 C118 34 120 78 100 100Z" fill="#f8f6ec" stroke="#cdd8ba" stroke-width="3" stroke-linejoin="round" transform="rotate(60 100 100)"/>
<path d="M100 100 C80 78 82 34 100 8 C118 34 120 78 100 100Z" fill="#f8f6ec" stroke="#cdd8ba" stroke-width="3" stroke-linejoin="round" transform="rotate(120 100 100)"/>
<path d="M100 100 C80 78 82 34 100 8 C118 34 120 78 100 100Z" fill="#f8f6ec" stroke="#cdd8ba" stroke-width="3" stroke-linejoin="round" transform="rotate(180 100 100)"/>
<path d="M100 100 C80 78 82 34 100 8 C118 34 120 78 100 100Z" fill="#f8f6ec" stroke="#cdd8ba" stroke-width="3" stroke-linejoin="round" transform="rotate(240 100 100)"/>
<path d="M100 100 C80 78 82 34 100 8 C118 34 120 78 100 100Z" fill="#f8f6ec" stroke="#cdd8ba" stroke-width="3" stroke-linejoin="round" transform="rotate(300 100 100)"/>
<path d="M100 92 L100 26" stroke="#d6dfc6" stroke-width="2.5" stroke-linecap="round" transform="rotate(0 100 100)"/><path d="M100 92 L100 26" stroke="#d6dfc6" stroke-width="2.5" stroke-linecap="round" transform="rotate(60 100 100)"/><path d="M100 92 L100 26" stroke="#d6dfc6" stroke-width="2.5" stroke-linecap="round" transform="rotate(120 100 100)"/><path d="M100 92 L100 26" stroke="#d6dfc6" stroke-width="2.5" stroke-linecap="round" transform="rotate(180 100 100)"/><path d="M100 92 L100 26" stroke="#d6dfc6" stroke-width="2.5" stroke-linecap="round" transform="rotate(240 100 100)"/><path d="M100 92 L100 26" stroke="#d6dfc6" stroke-width="2.5" stroke-linecap="round" transform="rotate(300 100 100)"/>
<circle cx="100" cy="100" r="15" fill="#d5e6ba"/>
<g transform="rotate(30 100 100)"><path d="M100 100 L100 62" stroke="#c9d8ae" stroke-width="2.5"/><ellipse cx="100" cy="58" rx="4" ry="8" fill="#e6a652"/></g><g transform="rotate(90 100 100)"><path d="M100 100 L100 62" stroke="#c9d8ae" stroke-width="2.5"/><ellipse cx="100" cy="58" rx="4" ry="8" fill="#e6a652"/></g><g transform="rotate(150 100 100)"><path d="M100 100 L100 62" stroke="#c9d8ae" stroke-width="2.5"/><ellipse cx="100" cy="58" rx="4" ry="8" fill="#e6a652"/></g><g transform="rotate(210 100 100)"><path d="M100 100 L100 62" stroke="#c9d8ae" stroke-width="2.5"/><ellipse cx="100" cy="58" rx="4" ry="8" fill="#e6a652"/></g><g transform="rotate(270 100 100)"><path d="M100 100 L100 62" stroke="#c9d8ae" stroke-width="2.5"/><ellipse cx="100" cy="58" rx="4" ry="8" fill="#e6a652"/></g><g transform="rotate(330 100 100)"><path d="M100 100 L100 62" stroke="#c9d8ae" stroke-width="2.5"/><ellipse cx="100" cy="58" rx="4" ry="8" fill="#e6a652"/></g>
</svg>
